<svg width="16" height="34" viewBox="0 0 16 34" fill="none" xmlns="http://www.w3.org/2000/svg">
<g clip-path="url(#clip0_2241_17140)">
<path d="M13.8522 32.8961C12.9187 32.6633 12.284 32.5382 11.1664 32.5324C10.5607 32.5324 9.34691 32.5313 7.86678 32.5301C6.29979 32.5301 4.59266 32.5301 2.83572 32.5301C2.61567 32.5301 2.39562 32.5301 2.17441 32.5301C1.98795 32.5301 1.81886 32.5012 1.65208 32.4386C1.32201 32.3159 1.03942 32.0622 0.883064 31.7437C0.804309 31.5851 0.755666 31.4125 0.739452 31.2353L0.732503 31.0986V30.9319V30.5972C0.732503 30.1513 0.732503 29.7077 0.732503 29.2653C0.732503 25.7294 0.732503 22.3545 0.731345 19.8633C0.731345 19.7081 0.731345 19.5564 0.731345 19.407C0.735977 19.2889 0.745243 19.173 0.775355 19.0642C0.829788 18.8464 0.931707 18.6542 1.06026 18.5013C1.31969 18.1944 1.65787 18.045 1.93583 18.0091C2.00532 17.994 2.07365 17.9964 2.13619 17.9917C2.21379 17.9917 2.28791 17.9917 2.35509 17.9917C2.49291 17.9917 2.60988 17.9917 2.70485 17.9917C2.89479 17.9917 2.99439 17.9917 2.99439 17.9917C2.99439 17.9917 4.60192 17.9917 7.09313 17.9917C8.33815 17.9917 9.80554 17.9917 11.4026 17.9917C12.1995 17.9917 13.0275 17.9929 13.8776 17.994C14.2181 17.9964 14.5552 18.1342 14.81 18.3693C15.0659 18.6032 15.2315 18.9356 15.2616 19.2854L15.2686 19.4197V19.5854V19.9177C15.2686 20.1401 15.2686 20.3625 15.2686 20.5848C15.2686 21.0307 15.2686 21.4766 15.2686 21.9237C15.2686 22.8166 15.2686 23.7072 15.2686 24.5863C15.2686 26.3293 15.2686 28.0226 15.2686 29.5768C15.2686 29.9463 15.2686 30.2821 15.2686 30.5636C15.2686 30.7049 15.2686 30.8311 15.2686 30.9423C15.2686 30.9979 15.2686 31.0488 15.2686 31.0963C15.2674 31.1345 15.2651 31.1693 15.264 31.2006C15.2512 31.4229 15.1991 31.6175 15.125 31.7901C15.0509 31.9626 14.9559 32.1155 14.8424 32.2533C14.7289 32.3911 14.5969 32.5174 14.4359 32.6274C14.2749 32.7374 14.0838 32.8324 13.8498 32.8926C14.3189 33.0061 14.7926 32.9193 15.1921 32.6564C15.3925 32.5232 15.5755 32.3425 15.7191 32.1074C15.8627 31.8734 15.967 31.5816 15.989 31.2457C15.9913 31.2017 15.9948 31.1461 15.9959 31.0952C15.9959 31.0477 15.9959 30.9967 15.9959 30.9411C15.9959 30.8299 15.9959 30.7025 15.9959 30.5624C15.9959 30.281 15.9959 29.9439 15.9959 29.5757C15.9959 28.0214 15.9959 26.3282 15.9959 24.5851C15.9959 23.7061 15.9959 22.8155 15.9959 21.9225C15.9959 21.4766 15.9959 21.0296 15.9959 20.5837C15.9959 20.3613 15.9959 20.139 15.9959 19.9166V19.5842V19.4186C15.9948 19.356 15.9901 19.2865 15.9866 19.2217C15.9415 18.6901 15.689 18.184 15.3022 17.8296C14.9177 17.474 14.4011 17.2656 13.8881 17.2609C13.0333 17.2609 12.1995 17.2609 11.3992 17.2598C9.80207 17.2598 8.33583 17.2598 7.08965 17.2598C4.59845 17.2598 2.99092 17.2598 2.99092 17.2598C2.99092 17.2598 2.89016 17.2598 2.70138 17.2598C2.60641 17.2598 2.48943 17.2598 2.35161 17.2598C2.28212 17.2598 2.20684 17.2598 2.12577 17.2598C2.0308 17.2656 1.92888 17.2656 1.82349 17.2852C1.40076 17.342 0.887697 17.5667 0.496238 18.0311C0.302825 18.2616 0.147631 18.5534 0.0642437 18.8835C0.0190754 19.048 0.00286112 19.2228 -0.00177153 19.4012C-0.00177153 19.5506 -0.00177153 19.7023 -0.00177153 19.8587C-0.00177153 22.3499 -0.00177153 25.7248 -0.00292969 29.2606C-0.00292969 29.7031 -0.00292969 30.1466 -0.00292969 30.5925V30.9272V31.094C-0.00177153 31.1554 0.00286112 31.226 0.0063356 31.292C0.0294988 31.5596 0.103621 31.8236 0.22407 32.0645C0.462651 32.5475 0.888855 32.9308 1.3915 33.1185C1.6405 33.2134 1.91614 33.2574 2.17094 33.2574C2.39215 33.2574 2.6122 33.2574 2.83225 33.2574C4.59034 33.2574 6.29747 33.2574 7.8633 33.2574C9.34228 33.2574 10.556 33.2551 11.1629 33.2551C12.2805 33.2493 12.9152 33.1243 13.8487 32.8915L13.8522 32.8961Z" fill="#FBFBFE" fill-opacity="0.99"/>
<path d="M13.6618 20.5774C13.0236 20.7372 12.4793 20.9769 12.0276 21.2954C11.9616 21.5213 11.9153 21.7691 11.8863 22.0424C11.8585 22.3146 11.8249 22.5636 11.7879 22.7894C11.7508 23.0153 11.6848 23.1751 11.591 23.2678C11.4404 23.3998 11.1972 23.4739 10.859 23.4936C10.5208 23.5121 10.1456 23.5168 9.73213 23.5075C9.48776 23.4982 9.24107 23.4936 8.99322 23.4936C8.74538 23.4936 8.49753 23.5029 8.25432 23.5214C8.22652 23.5399 8.20915 23.5805 8.20452 23.6407C8.19988 23.7021 8.19757 23.76 8.19757 23.8167C8.19757 23.9013 8.19293 23.9534 8.18367 23.9719C8.32496 24.0287 8.4651 24.0495 8.6064 24.0356C8.74769 24.0217 8.89246 24.0009 9.04302 23.9719C9.1183 23.9627 9.1959 23.9511 9.27582 23.9372C9.35573 23.9233 9.43796 23.9117 9.5225 23.9024C9.78541 23.8932 10.0437 23.9279 10.2973 24.0078C10.551 24.0877 10.7907 24.17 11.0154 24.2545C11.0721 24.2823 11.13 24.309 11.1914 24.3321C11.2528 24.3553 11.3107 24.3773 11.3675 24.3958C11.2922 24.5464 11.1509 24.6425 10.9447 24.6842C10.7386 24.7259 10.5081 24.7479 10.2545 24.7479H9.91628C9.73792 24.7386 9.54103 24.734 9.32446 24.734C9.10788 24.734 8.90405 24.7409 8.71179 24.7548C8.51954 24.7687 8.37129 24.7954 8.26821 24.8324C8.2022 24.8602 8.15124 24.9239 8.11302 25.0224C8.07596 25.1208 8.05627 25.2031 8.05627 25.2691H8.48595C8.63188 25.2691 8.77896 25.2737 8.92952 25.283C9.38931 25.2922 9.83521 25.2899 10.2672 25.276C10.6992 25.2621 11.0513 25.1799 11.3234 25.0293C11.5111 25.1139 11.7126 25.1753 11.9292 25.2123C12.1446 25.2494 12.3542 25.2876 12.5557 25.3247C12.7572 25.3617 12.9333 25.4277 13.0838 25.5215C13.2344 25.6154 13.3375 25.7613 13.3942 25.9582C13.1035 26.0612 12.7654 26.1064 12.3797 26.0925C11.994 26.0786 11.6327 26.0531 11.2956 26.0149C11.4462 26.1562 11.6223 26.2709 11.8238 26.3601C12.0253 26.4492 12.2326 26.5361 12.4434 26.6206C12.6542 26.7052 12.8348 26.8129 12.9854 26.9449C12.9854 27.0955 13.0086 27.2009 13.0561 27.2623C13.1035 27.3236 13.1614 27.3873 13.2321 27.4522C13.3027 27.5182 13.3711 27.6398 13.4359 27.8182C13.3989 27.912 13.3108 27.9919 13.1753 28.0579C13.0387 28.1239 12.8626 28.1471 12.6472 28.1286C12.5719 28.1193 12.4503 28.0463 12.2812 27.9097C12.1122 27.7742 11.9407 27.6143 11.767 27.4314C11.5933 27.2484 11.4451 27.0816 11.3234 26.931C11.2296 26.8002 11.1567 26.6728 11.1046 26.5512C11.0524 26.4295 10.9945 26.316 10.9285 26.213C10.8625 26.1099 10.7548 26.03 10.6042 25.9732C10.3599 25.9825 10.1514 25.9871 9.97766 25.9871C9.80394 25.9871 9.63253 25.9825 9.46344 25.9732H8.88551C9.02681 26.0856 9.16231 26.2246 9.29435 26.389C9.42522 26.5535 9.52135 26.7388 9.58273 26.9449C9.64411 27.1511 9.63716 27.3908 9.56188 27.663C9.5144 27.7475 9.46807 27.7927 9.42059 27.7973C9.3731 27.802 9.32214 27.7996 9.26539 27.7904C9.2376 27.7811 9.20401 27.7719 9.16695 27.7626C9.12989 27.7533 9.08704 27.7533 9.04071 27.7626C8.9191 27.678 8.82645 27.5657 8.76622 27.4244C8.70484 27.2831 8.64693 27.143 8.59018 27.0017C8.53343 26.8604 8.44425 26.748 8.32265 26.6635C8.42572 26.5882 8.47553 26.4875 8.47089 26.3612C8.46626 26.235 8.44541 26.1238 8.40719 26.03C8.2381 26.0207 8.06901 26.0207 7.89992 26.03C7.73083 26.0392 7.56637 26.0531 7.40654 26.0717C7.20965 26.0902 7.01393 26.1053 6.82167 26.1134C6.62942 26.1226 6.44411 26.1087 6.26575 26.0717C6.28428 26.213 6.33408 26.3253 6.414 26.4099C6.49391 26.4944 6.57614 26.5766 6.66069 26.6565C6.74523 26.7365 6.79619 26.8465 6.81588 26.9878C7.07878 26.9218 7.33474 26.9553 7.58374 27.0862C7.83275 27.2183 8.04816 27.392 8.23115 27.6074C8.41414 27.824 8.5288 28.0301 8.57629 28.227H8.59018C8.79634 28.2455 8.99322 28.2479 9.182 28.234C9.36963 28.2201 9.57578 28.1425 9.80162 28.0012C10.7687 28.0672 11.4914 28.3764 11.9709 28.9312C11.6605 28.9879 11.3675 29.0204 11.0907 29.0296C10.8139 29.0389 10.5208 29.0435 10.2105 29.0435C9.98461 29.0435 9.74603 29.0458 9.49239 29.0505C9.23875 29.0551 8.95732 29.0713 8.64693 29.1003C8.54386 29.1477 8.48247 29.2126 8.46394 29.2972C8.44541 29.3817 8.41878 29.4547 8.38635 29.516C8.35276 29.5774 8.26706 29.6075 8.12576 29.6075C8.10723 29.6736 8.14429 29.706 8.2381 29.706C8.30412 29.706 8.34118 29.7152 8.35044 29.7338C8.33191 29.8091 8.25663 29.8461 8.1246 29.8461C8.21841 29.9307 8.33539 29.9897 8.47668 30.0222C8.61798 30.0557 8.77202 30.072 8.94111 30.072C9.05345 30.072 9.17158 30.0696 9.29319 30.065C9.41479 30.0604 9.54219 30.0534 9.67306 30.0442C9.83289 30.0349 9.99735 30.028 10.1664 30.0233C10.3355 30.0187 10.5 30.021 10.6598 30.0303C10.7061 30.0303 10.7212 30.0025 10.7015 29.9457C10.683 29.8797 10.7015 29.8426 10.7583 29.8334C11.0872 29.8426 11.43 29.8809 11.7867 29.9457C12.1434 30.0117 12.4723 30.1102 12.7723 30.2411C13.0723 30.3719 13.3027 30.5561 13.4626 30.79C13.341 30.9406 13.2043 31.0182 13.0537 31.0228C12.9032 31.0274 12.7295 31.0159 12.5326 30.9881C12.4573 30.9788 12.3751 30.9672 12.2859 30.9533C12.1967 30.9394 12.1052 30.9325 12.0114 30.9325C11.9836 30.9325 11.9315 30.9417 11.8562 30.9603C11.7717 30.9881 11.7149 30.9973 11.6871 30.9881C11.6211 30.9788 11.5574 30.958 11.4972 30.9244C11.4358 30.8919 11.3779 30.8699 11.3211 30.8607C10.551 30.7854 9.74371 30.7669 8.89825 30.8039C8.0528 30.841 7.25482 30.8931 6.50433 30.9591C6.18468 30.9869 5.85692 31.0159 5.51874 31.0437C5.18056 31.0715 4.90376 31.1699 4.68834 31.339C4.29456 31.405 3.96564 31.3483 3.70274 31.1699C3.43984 30.9915 3.19083 30.79 2.95573 30.5642C2.89898 30.5167 2.8457 30.4681 2.79359 30.4159C2.74147 30.3638 2.68819 30.3152 2.63144 30.2677C2.96036 30.2955 3.18968 30.3094 3.32171 30.3094C3.59387 30.3094 3.88689 30.2955 4.20191 30.2677C4.51693 30.2399 4.83774 30.2063 5.16666 30.1692C5.56043 30.1322 5.94842 30.0963 6.32829 30.0639C6.70817 30.0314 7.04404 30.0245 7.33589 30.043C7.39264 29.9677 7.41349 29.8716 7.39959 29.7546C7.3857 29.6377 7.36948 29.5218 7.34979 29.4095C7.34053 29.3527 7.33126 29.3018 7.322 29.2543C7.31273 29.208 7.3081 29.1651 7.3081 29.1281C6.79156 29.1373 6.35725 29.1559 6.00517 29.1848C5.65309 29.2126 5.30332 29.2416 4.95587 29.2694C4.77752 29.1477 4.61306 29.0134 4.4625 28.8675C4.31194 28.7215 4.14748 28.5884 3.96912 28.4656C4.29804 28.3996 4.62811 28.3602 4.96166 28.3463C5.29521 28.3324 5.64035 28.3255 5.99706 28.3255C6.19395 28.3255 6.39547 28.3231 6.60278 28.3185C6.80893 28.3139 7.02087 28.3069 7.23629 28.2977C7.31157 28.2606 7.36022 28.2062 7.38454 28.1355C7.4077 28.0649 7.42391 27.9873 7.43434 27.9027C7.33126 27.8749 7.25598 27.8089 7.2085 27.7058C7.16101 27.6028 7.117 27.4927 7.07415 27.3746C7.03246 27.2576 6.96412 27.1754 6.87031 27.1279C6.79503 27.363 6.74871 27.5715 6.72902 27.7545C6.71049 27.9375 6.59235 28.0764 6.37694 28.1703C6.17078 28.095 6.02949 27.9896 5.95421 27.8529C5.87893 27.7174 5.82797 27.5669 5.79901 27.4024C5.77122 27.2379 5.71447 27.0909 5.62992 26.9588L5.74226 26.8604C5.733 26.748 5.72837 26.6334 5.72837 26.5152C5.72837 26.3971 5.7469 26.2882 5.78512 26.184C5.55927 26.1377 5.35544 26.1261 5.17245 26.1493C4.98946 26.1724 4.80879 26.2083 4.63043 26.2547C4.4984 26.2825 4.36289 26.3114 4.2216 26.3392C4.0803 26.367 3.92627 26.3763 3.75718 26.367C3.86952 26.499 3.95406 26.66 4.01081 26.8523C4.06756 27.0445 4.15211 27.2067 4.26445 27.3387C4.08609 27.4418 3.93322 27.597 3.80698 27.8031C3.68074 28.0093 3.54407 28.2096 3.39815 28.4019C3.25222 28.5941 3.05765 28.7239 2.81327 28.7887C2.65345 28.7042 2.54574 28.5895 2.48899 28.4436C2.43224 28.2977 2.39518 28.1436 2.37665 27.9792C2.35812 27.8147 2.31063 27.6676 2.23535 27.5356C2.54574 27.4047 2.79127 27.2171 2.97426 26.9727C3.15725 26.7284 3.36572 26.5129 3.60082 26.3253C3.40394 26.2037 3.19663 26.0856 2.98121 25.9732C2.76463 25.8609 2.60596 25.7717 2.50289 25.7057C2.93488 25.5644 3.3993 25.4799 3.89731 25.4521C4.39532 25.4243 4.90144 25.4046 5.41798 25.3953C5.70868 25.3953 6.00053 25.3907 6.29123 25.3814C6.58193 25.3721 6.86916 25.3536 7.15059 25.3247C7.19807 25.1834 7.2305 25.0479 7.24903 24.9158C6.92938 24.8695 6.60162 24.8521 6.26344 24.866C5.92525 24.8799 5.6056 24.8683 5.30564 24.8313C5.06127 24.7942 4.8389 24.7259 4.63622 24.6274C4.4347 24.529 4.26792 24.3715 4.13589 24.1561C4.35131 24.1931 4.5841 24.2082 4.83311 24.1978C5.08211 24.1885 5.35196 24.17 5.64266 24.141C5.88703 24.1225 6.1453 24.1063 6.41747 24.0912C6.68964 24.0773 6.97571 24.075 7.27683 24.0843C7.27683 24.0472 7.2722 24.0044 7.26293 23.958C7.25367 23.9105 7.23977 23.8642 7.22124 23.8167C7.21197 23.7797 7.20039 23.7415 7.18649 23.7044C7.17259 23.6673 7.16564 23.6291 7.16564 23.592C6.84599 23.5446 6.49391 23.5422 6.1094 23.5851C5.72373 23.6268 5.4145 23.6998 5.1794 23.804C4.96282 23.7194 4.74045 23.6419 4.50998 23.5712C4.27951 23.5006 4.08957 23.3905 3.94016 23.24V22.662C3.94943 22.3806 3.95175 22.0772 3.94711 21.754C3.94248 21.4298 3.89731 21.1136 3.81393 20.8032L3.30665 20.465C3.13756 20.3527 3.0009 20.2067 2.89782 20.0284C2.92562 20.0284 2.9731 20.0145 3.03912 19.9867C3.12366 19.9682 3.22211 19.9473 3.33445 19.923C3.44679 19.8998 3.56955 19.9114 3.70043 19.9577C4.12315 19.8269 4.62232 19.7423 5.20024 19.7041C5.77817 19.667 6.38273 19.6427 7.0174 19.6335C7.65091 19.6242 8.26821 19.601 8.8693 19.5628V19.7041C9.70433 19.535 10.5174 19.4574 11.3061 19.4713C12.0948 19.4852 12.8742 19.6948 13.6444 20.0979C13.6537 20.1164 13.6629 20.1454 13.6722 20.1824C13.7 20.2392 13.7185 20.2971 13.7289 20.3585C13.7382 20.4198 13.715 20.4928 13.6583 20.5762L13.6618 20.5774ZM7.08457 20.3388C6.74639 20.3666 6.41052 20.3839 6.07813 20.3886C5.74458 20.3932 5.41798 20.4384 5.09948 20.5229C5.052 20.6445 5.04505 20.7905 5.07864 20.9595C5.11107 21.1286 5.14697 21.2746 5.18403 21.3962C5.47473 21.3209 5.80133 21.2861 6.16268 21.2908C6.52402 21.2954 6.83673 21.2514 7.09963 21.1564L7.08573 20.3399L7.08457 20.3388ZM7.15522 22.9296C7.14596 22.8172 7.14132 22.6597 7.14132 22.4582C7.14132 22.2567 7.12279 22.0806 7.08457 21.9301C6.72786 21.9486 6.38504 21.9706 6.05613 21.9938C5.72721 22.0169 5.44114 22.0621 5.19677 22.127V22.3528C5.18751 22.4652 5.18751 22.5763 5.19677 22.6841C5.20604 22.7918 5.24773 22.8879 5.32301 22.9724C5.47357 22.9539 5.62066 22.9446 5.76659 22.9446H6.66069C6.81125 22.9446 6.97571 22.94 7.15406 22.9307L7.15522 22.9296ZM10.6054 20.1558C10.2301 20.1743 9.80973 20.1905 9.3453 20.2056C8.88088 20.2195 8.42688 20.2311 7.98678 20.2403C8.06206 20.3527 8.13039 20.4847 8.19062 20.6341C8.252 20.7847 8.25895 20.9352 8.21146 21.0846C8.4651 21.1032 8.72106 21.1414 8.97933 21.197C9.2376 21.2537 9.46575 21.329 9.66264 21.4228C9.85953 21.5166 9.99156 21.6336 10.0564 21.7749C9.98114 21.7842 9.90586 21.7911 9.83057 21.7957C9.75529 21.8004 9.68001 21.8073 9.60473 21.8166C9.39858 21.8444 9.182 21.8687 8.95732 21.8872C8.73148 21.9058 8.5068 21.9058 8.28095 21.8872C8.2242 21.9996 8.19178 22.12 8.18251 22.2463C8.17325 22.3725 8.16861 22.493 8.16861 22.6053C8.16861 22.6528 8.1663 22.6945 8.16166 22.7315C8.15703 22.7686 8.15471 22.8068 8.15471 22.8439C8.23926 22.8531 8.34465 22.8555 8.47205 22.8508C8.59829 22.8462 8.73727 22.8392 8.88783 22.83C9.1322 22.8114 9.39511 22.7999 9.67654 22.7952C9.95797 22.7906 10.2162 22.8207 10.4513 22.8867C10.4699 22.7929 10.4884 22.7014 10.5081 22.6122C10.5266 22.5231 10.5452 22.4362 10.5648 22.3517C10.6494 21.9579 10.7131 21.5768 10.7548 21.2109C10.7965 20.8449 10.7478 20.4928 10.6065 20.1546L10.6054 20.1558Z" fill="#FBFBFE" fill-opacity="0.99"/>
<path d="M2.149 0.366956C3.08248 0.599746 3.71715 0.724828 4.83478 0.730618C5.4405 0.730618 6.65425 0.731777 8.13438 0.732935C9.70138 0.732935 11.4085 0.732935 13.1654 0.732935C13.3855 0.732935 13.6055 0.732935 13.8267 0.732935C14.0132 0.732935 14.1823 0.761889 14.3491 0.824429C14.6792 0.947195 14.9617 1.20083 15.1181 1.51933C15.1969 1.67799 15.2455 1.85056 15.2617 2.02776L15.2687 2.16442V2.3312V2.66591C15.2687 3.1118 15.2687 3.55537 15.2687 3.99779C15.2687 7.53366 15.2687 10.9085 15.2698 13.3997C15.2698 13.5549 15.2698 13.7067 15.2698 13.8561C15.2652 13.9742 15.2559 14.09 15.2258 14.1989C15.1714 14.4166 15.0695 14.6089 14.9409 14.7617C14.6815 15.0687 14.3433 15.2181 14.0653 15.254C13.9958 15.269 13.9275 15.2667 13.865 15.2713C13.7874 15.2713 13.7132 15.2713 13.6461 15.2713C13.5083 15.2713 13.3913 15.2713 13.2963 15.2713C13.1064 15.2713 13.0068 15.2713 13.0068 15.2713C13.0068 15.2713 11.3992 15.2713 8.90803 15.2713C7.66301 15.2713 6.19562 15.2713 4.59851 15.2713C3.8017 15.2713 2.97361 15.2702 2.12352 15.269C1.78302 15.2667 1.446 15.1289 1.1912 14.8938C0.93525 14.6598 0.769633 14.3274 0.73952 13.9777L0.732571 13.8433V13.6777V13.3453C0.732571 13.1229 0.732571 12.9006 0.732571 12.6782C0.732571 12.2323 0.732571 11.7864 0.732571 11.3394C0.732571 10.4464 0.732571 9.55581 0.732571 8.67677C0.732571 6.93373 0.732571 5.2405 0.732571 3.68625C0.732571 3.31679 0.732571 2.98093 0.732571 2.69949C0.732571 2.5582 0.732571 2.43196 0.732571 2.32077C0.732571 2.26518 0.732571 2.21422 0.732571 2.16674C0.73373 2.12852 0.736046 2.09377 0.737204 2.0625C0.749944 1.84014 0.802061 1.64557 0.876183 1.473C0.950306 1.30043 1.04528 1.14756 1.15877 1.00974C1.27227 0.871914 1.40431 0.745674 1.56529 0.635649C1.72627 0.525624 1.91737 0.430654 2.15132 0.37043C1.68226 0.25693 1.20858 0.343792 0.80901 0.606695C0.608648 0.739884 0.425659 0.920557 0.282047 1.15566C0.136118 1.3873 0.0318837 1.67799 0.00987866 2.01386C0.00756233 2.05787 0.00408785 2.11346 0.00292969 2.16442C0.00292969 2.21191 0.00292969 2.26287 0.00292969 2.31846C0.00292969 2.42964 0.00292969 2.55704 0.00292969 2.69718C0.00292969 2.97861 0.00292969 3.31563 0.00292969 3.68393C0.00292969 5.23818 0.00292969 6.93142 0.00292969 8.67445C0.00292969 9.55349 0.00292969 10.4441 0.00292969 11.3371C0.00292969 11.783 0.00292969 12.23 0.00292969 12.6759C0.00292969 12.8983 0.00292969 13.1206 0.00292969 13.343V13.6754V13.841C0.00408785 13.9035 0.0087205 13.973 0.012195 14.0379C0.0573633 14.5695 0.309843 15.0756 0.696668 15.43C1.08118 15.7856 1.59772 15.994 2.11078 15.9987C2.96551 15.9987 3.79938 15.9987 4.59967 15.9998C6.19678 15.9998 7.66301 15.9998 8.90919 15.9998C11.4004 15.9998 13.0079 15.9998 13.0079 15.9998C13.0079 15.9998 13.1087 15.9998 13.2975 15.9998C13.3924 15.9998 13.5094 15.9998 13.6472 15.9998C13.7167 15.9998 13.792 15.9998 13.8731 15.9998C13.968 15.994 14.07 15.994 14.1754 15.9743C14.5981 15.9176 15.1111 15.6929 15.5026 15.2285C15.696 14.998 15.8512 14.7062 15.9346 14.3761C15.9798 14.2116 15.996 14.0367 16.0006 13.8584C16.0006 13.709 16.0006 13.5573 16.0006 13.4009C16.0006 10.9097 16.0006 7.53482 16.0018 3.99895C16.0018 3.55653 16.0018 3.11296 16.0018 2.66706V2.33236V2.16558C16.0006 2.1042 15.996 2.03355 15.9925 1.96753C15.9693 1.7 15.8952 1.43594 15.7748 1.19504C15.5362 0.712088 15.11 0.328736 14.6073 0.141114C14.3583 0.0449867 14.0827 0.000976562 13.8267 0.000976562C13.6055 0.000976562 13.3855 0.000976562 13.1654 0.000976562C11.4073 0.000976562 9.70022 0.000976562 8.13438 0.000976562C6.65541 0.000976562 5.44166 0.00329289 4.83478 0.00329289C3.71715 0.00908369 3.08248 0.134165 2.149 0.366956Z" fill="#FBFBFE" fill-opacity="0.99"/>
<path d="M14.5084 11.5034C14.2362 11.5508 13.9351 11.5671 13.6073 11.5532C13.2784 11.5393 12.9309 11.5184 12.565 11.4895C12.5175 11.4895 12.4735 11.4871 12.4306 11.4825C12.3889 11.4779 12.3438 11.4756 12.2974 11.4756C11.9778 11.457 11.6477 11.4408 11.3049 11.4258C10.9621 11.4119 10.6123 11.4188 10.2556 11.4466C10.5845 11.6064 10.9099 11.8033 11.2342 12.0384C11.5585 12.2735 11.8237 12.5503 12.0299 12.8688C12.1608 13.0854 12.2569 13.3217 12.3183 13.5799C12.3797 13.8382 12.382 14.122 12.3252 14.4323C11.9118 14.4891 11.5909 14.4625 11.3605 14.3548C11.13 14.247 10.9447 14.0942 10.8046 13.8973C10.6447 13.6714 10.5092 13.4085 10.3957 13.1086C10.2822 12.8086 10.1282 12.526 9.9313 12.2631C9.79927 12.0755 9.66608 11.918 9.52942 11.7917C9.39276 11.6655 9.25957 11.5312 9.12754 11.3899C8.73376 11.3991 8.36199 11.4316 8.01455 11.4883C7.6671 11.5451 7.32891 11.5821 7 11.6006C6.9722 11.6377 6.99536 11.6991 7.07064 11.7836C7.1077 11.8207 7.14361 11.8682 7.17604 11.9249C7.20846 11.9817 7.22005 12.0419 7.21078 12.1079C6.94788 12.3141 6.68961 12.5608 6.43597 12.8468C6.18233 13.1329 5.92406 13.3425 5.66116 13.4734C5.67969 13.6147 5.638 13.7317 5.53492 13.8255C5.43184 13.9193 5.31371 14.0085 5.18284 14.093C5.11683 14.1393 5.05081 14.1868 4.98595 14.2343C4.91994 14.2818 4.86435 14.3327 4.81686 14.3895C4.6385 14.342 4.46015 14.3212 4.28179 14.3258C4.10343 14.3304 3.90655 14.3003 3.68997 14.2343C3.82084 13.9807 4.0212 13.7386 4.28874 13.5093C4.55627 13.2788 4.82149 13.0402 5.0844 12.7912C5.3473 12.5422 5.53955 12.2631 5.66232 11.9527C5.45617 11.8114 5.22338 11.779 4.96511 11.8543C4.70684 11.9296 4.45551 12.0187 4.21114 12.1218C4.06985 12.1878 3.93897 12.2434 3.81737 12.2909C3.69576 12.3384 3.58226 12.3616 3.47918 12.3616C3.18849 12.3708 2.91748 12.3071 2.66963 12.1716C2.42063 12.0361 2.1832 11.8879 1.95852 11.728C1.88324 11.6806 1.80796 11.6342 1.73268 11.5867C1.6574 11.5393 1.58212 11.4929 1.50684 11.4454C1.53463 11.3991 1.58675 11.3771 1.66203 11.3818C1.73731 11.3864 1.77437 11.3563 1.77437 11.2903C2.43105 11.2335 3.14332 11.1617 3.9077 11.0714C4.67325 10.9822 5.46427 10.8976 6.28078 10.8177C7.09728 10.7378 7.90452 10.6938 8.70365 10.6834H9.09048C9.22598 10.6834 9.36959 10.688 9.52015 10.6973C9.69851 10.6973 9.87918 10.6996 10.0622 10.7042C10.2452 10.7089 10.4258 10.7065 10.6042 10.6973C10.8856 10.6787 11.1555 10.6428 11.4137 10.5919C11.672 10.5398 11.9048 10.4529 12.111 10.3313C12.3646 10.3788 12.6391 10.4228 12.9344 10.4656C13.2297 10.5073 13.5054 10.5803 13.7579 10.6845C13.9362 10.7598 14.0937 10.8606 14.2292 10.9868C14.3647 11.1131 14.4562 11.2845 14.5037 11.501L14.5084 11.5034ZM12.1144 5.8689C12.0484 5.98124 11.95 6.06116 11.8191 6.10864C11.6871 6.15612 11.5539 6.20245 11.4172 6.24994C11.2806 6.29742 11.1752 6.37154 11.0999 6.47578C11.0617 6.91704 11.0431 7.30965 11.0431 7.65131C11.0431 7.99297 11.0478 8.33463 11.057 8.67281C11.0663 8.95424 11.0709 9.2461 11.0709 9.54606C11.0709 9.84603 11.0617 10.1749 11.0431 10.5317C10.9586 10.5039 10.8879 10.4923 10.8324 10.4969C10.7756 10.5015 10.72 10.5039 10.6633 10.5039C10.6065 10.5131 10.5486 10.5201 10.4872 10.5247C10.4258 10.5293 10.3482 10.5178 10.2544 10.49C10.1606 10.4425 10.083 10.3799 10.0216 10.3C9.96026 10.2201 9.89192 10.1471 9.8178 10.0811C9.47035 10.1657 9.11132 10.2132 8.74071 10.2224C8.3701 10.2317 8.00875 10.2386 7.65667 10.2433C7.30459 10.2479 6.97799 10.2931 6.67803 10.3776C6.55642 10.4147 6.44292 10.4761 6.33984 10.5606C6.23677 10.6452 6.11863 10.6869 5.98776 10.6869C5.78161 10.6869 5.56503 10.6093 5.34035 10.4541C5.11451 10.2989 4.92225 10.1564 4.76243 10.0244C4.80875 9.99659 4.8655 9.98269 4.93152 9.98269C4.99753 9.98269 5.04849 9.96416 5.08671 9.92594C4.95468 9.8414 4.88751 9.72905 4.88288 9.58776C4.87824 9.44646 4.88519 9.30169 4.90372 9.15113C4.92225 9.02952 4.93152 8.90908 4.93152 8.7921C4.93152 8.67513 4.89446 8.579 4.81918 8.50372C4.89446 8.48519 4.95352 8.40991 4.99522 8.27788C5.03691 8.147 5.05892 7.99413 5.05892 7.8204C5.05892 7.64668 5.04039 7.48685 5.00217 7.34092C4.96511 7.195 4.90372 7.09424 4.81918 7.03864C4.81918 7.01085 4.85161 6.99116 4.91762 6.98189C5.00217 6.97263 5.03923 6.9402 5.02996 6.88345C4.90836 6.68656 4.72884 6.536 4.49489 6.43293C4.25979 6.32985 4.03047 6.22677 3.80463 6.1237C4.16134 5.89785 4.50647 5.72876 4.84002 5.61642C5.17357 5.50408 5.53492 5.41722 5.92406 5.35583C6.31321 5.29445 6.76257 5.24581 7.26869 5.20759C7.31502 5.10451 7.34165 4.97712 7.34629 4.82771C7.35092 4.67715 7.34397 4.56944 7.32544 4.50343C6.93977 4.59724 6.55989 4.66094 6.18465 4.69337C5.80941 4.72695 5.47585 4.81266 5.18516 4.95395C4.92225 4.76633 4.66862 4.56944 4.42424 4.36213C4.17987 4.15598 4.01078 3.87918 3.91697 3.53173C4.16134 3.52247 4.40456 3.52478 4.64893 3.53868C4.8933 3.55258 5.13188 3.56879 5.36699 3.58848C5.44227 3.58848 5.51523 3.5908 5.58472 3.59543C5.65537 3.60006 5.72833 3.60701 5.80246 3.61628C6.04683 3.62554 6.29583 3.63249 6.54947 3.63712C6.80311 3.64176 7.06138 3.62554 7.32428 3.58732C7.33355 3.38117 7.30807 3.20745 7.24668 3.06615C7.1853 2.92485 7.11234 2.79861 7.02895 2.68627C7.01042 2.65848 6.98726 2.62721 6.9583 2.59478C6.93051 2.56235 6.90618 2.53108 6.88765 2.50328C6.77531 2.36199 6.67918 2.21722 6.59927 2.06666C6.51936 1.91609 6.51241 1.71457 6.57842 1.46094C6.93514 1.498 7.28954 1.58023 7.64162 1.70763C7.9937 1.83502 8.26355 2.00527 8.45117 2.22185C8.58204 2.37241 8.65964 2.54382 8.68396 2.73607C8.70713 2.92833 8.64343 3.14259 8.49402 3.37654C8.70018 3.45182 8.93297 3.4495 9.19124 3.36959C9.44951 3.28967 9.67766 3.21208 9.87455 3.1368C9.91161 3.11827 9.94983 3.10205 9.98689 3.087C10.024 3.0731 10.0575 3.06152 10.0853 3.05225C10.2822 3.15533 10.5081 3.23292 10.7617 3.28504C11.0153 3.33716 11.2528 3.40202 11.4728 3.48193C11.6929 3.56184 11.8504 3.70545 11.9442 3.91161C11.7091 4.0807 11.4091 4.18146 11.0431 4.21389C10.6772 4.24747 10.2915 4.26832 9.88845 4.27759C9.65334 4.27759 9.42403 4.2799 9.19819 4.28454C8.97234 4.28917 8.75693 4.31001 8.55077 4.34823C8.4477 4.41425 8.37242 4.50806 8.32493 4.62967C8.27745 4.75127 8.24502 4.89257 8.22649 5.0524C8.45233 5.09988 8.70481 5.1161 8.9874 5.1022C9.26883 5.0883 9.49468 5.00607 9.66377 4.85551C9.80506 4.8833 9.97068 4.90531 10.1641 4.91921C10.3563 4.93311 10.5509 4.9609 10.749 5.00375C10.9459 5.04545 11.1219 5.11378 11.2771 5.20759C11.4323 5.3014 11.533 5.43806 11.5794 5.61642C11.6824 5.64422 11.7971 5.66159 11.9245 5.66622C12.0507 5.67085 12.1144 5.73919 12.1144 5.87006V5.8689ZM9.71936 9.51711C9.75642 8.92529 9.7541 8.31262 9.71241 7.67911C9.67072 7.04559 9.5827 6.42366 9.45182 5.81331C9.12291 5.75656 8.75924 5.74266 8.36084 5.77162C7.96127 5.79941 7.56518 5.85384 7.17025 5.93376C6.77647 6.01367 6.4186 6.1098 6.1001 6.22214C6.16612 6.31595 6.20781 6.41439 6.22634 6.51747C6.24487 6.62055 6.21708 6.72362 6.1418 6.82786C6.16959 6.82786 6.21708 6.82323 6.28309 6.81396C6.69656 6.74795 7.0857 6.70162 7.45168 6.67266C7.81766 6.64487 8.15121 6.66803 8.45117 6.74331C8.75114 6.81859 9.01404 6.98305 9.23988 7.23669C8.99551 7.24596 8.75345 7.27143 8.51487 7.31429C8.27513 7.35598 8.03771 7.39652 7.80376 7.43358C7.51306 7.49033 7.2212 7.53897 6.93051 7.58182C6.63981 7.62352 6.34332 7.64552 6.04335 7.64552C6.03409 7.68258 6.02946 7.72543 6.02946 7.77176V7.91306C6.03872 7.97907 6.04104 8.04509 6.03641 8.10994C6.03177 8.17596 6.01556 8.24197 5.9866 8.30683C6.36185 8.27903 6.72783 8.23618 7.0857 8.18059C7.44241 8.12384 7.7528 8.06362 8.0157 7.9976C8.26007 8.07288 8.50329 8.1528 8.74766 8.23734C8.99203 8.32189 9.18892 8.44349 9.33948 8.60332C9.10437 8.61259 8.87274 8.63691 8.64227 8.67397C8.41179 8.71219 8.18016 8.75388 7.94505 8.80021C7.6254 8.85696 7.30459 8.90792 6.98031 8.9554C6.65602 9.00289 6.32479 9.02142 5.98776 9.01215C6.01556 9.05964 6.02482 9.10828 6.01556 9.1604C6.00629 9.21251 5.99239 9.26579 5.97386 9.32254C5.9646 9.37002 5.95302 9.42098 5.93912 9.47773C5.92522 9.53448 5.92291 9.59934 5.93217 9.67462C6.18581 9.69315 6.45566 9.69083 6.74173 9.66767C7.02779 9.64451 7.31617 9.6144 7.60803 9.57618C7.98327 9.52985 8.35157 9.49395 8.71407 9.47078C9.07542 9.44762 9.41129 9.46383 9.72052 9.52058L9.71936 9.51711Z" fill="#FBFBFE" fill-opacity="0.99"/>
</g>
<defs>
<clipPath id="clip0_2241_17140">
<rect width="16" height="33.2612" fill="white"/>
</clipPath>
</defs>
</svg>
