<?xml version="1.0" encoding="UTF-8"?>
<svg id="Layer_1" data-name="Layer 1" xmlns="http://www.w3.org/2000/svg" viewBox="0 0 1920 679.76">
  <defs>
    <style>
      .cls-1 {
        fill: #fff;
      }
    </style>
  </defs>
  <path class="cls-1" d="M1920,225.26h-32.85v223.02h32.85v-223.02Z"/>
  <path class="cls-1" d="M959.91,219.51c-65.38,0-118.38,52.58-118.38,117.44h32.88c0-46.77,38.34-84.81,85.49-84.81s85.49,38.05,85.49,84.81h32.88c0-64.86-53-117.44-118.38-117.44h0Z"/>
  <path class="cls-1" d="M894.23,454.4c65.38,0,118.38-52.58,118.38-117.44h-32.88c0,46.77-38.34,84.82-85.49,84.82s-85.49-38.07-85.49-84.82h-32.88c0,64.86,53,117.44,118.38,117.44Z"/>
  <path class="cls-1" d="M1331.53,225.28v110.53c0,47.23-38.34,85.64-85.49,85.64s-85.49-38.43-85.49-85.64v-110.53h-32.88v110.53c0,65.49,53,118.59,118.38,118.59s118.38-53.09,118.38-118.59v-110.53h-32.88Z"/>
  <path class="cls-1" d="M1430.22,448.29v-110.54c0-47.23,38.34-85.64,85.49-85.64s85.49,38.43,85.49,85.64v110.54h32.88v-110.54c0-65.49-53-118.59-118.38-118.59s-118.38,53.09-118.38,118.59v110.54h32.88Z"/>
  <path class="cls-1" d="M1719.38,219.16c-30.78,0-58.8,11.77-79.85,31.06,6.68,9.41,12.19,19.51,16.49,30.08,15.66-17.32,38.26-28.22,63.36-28.22,47.15,0,85.49,38.43,85.49,85.64v110.54h32.88v-110.54c0-65.49-53-118.59-118.38-118.59h0v.03Z"/>
  <path class="cls-1" d="M32.88,448.29v-110.54c0-47.23,38.34-85.64,85.49-85.64s85.49,38.43,85.49,85.64v110.54h32.88v-110.54c0-65.49-53-118.59-118.38-118.59S0,272.25,0,337.74v110.54h32.88Z"/>
  <path class="cls-1" d="M322.05,219.16c-30.78,0-58.8,11.77-79.85,31.06,6.68,9.41,12.19,19.51,16.49,30.08,15.66-17.32,38.26-28.22,63.36-28.22,47.15,0,85.49,38.43,85.49,85.64v110.54h32.88v-110.54c0-65.49-53-118.59-118.38-118.59h0v.03Z"/>
  <path class="cls-1" d="M1920,159.36h-32.85v32.9h32.85v-32.9Z"/>
  <path class="cls-1" d="M726.56,335.46v-109.92h-32.85v30.24c-21.55-22.33-51.87-36.26-85.49-36.26-65.38,0-118.38,52.58-118.38,117.44s53,117.44,118.38,117.44c18.91,0,36.8-4.42,52.65-12.24v-38.45c-14.52,11.29-32.81,18.07-52.65,18.07-47.15,0-85.49-38.07-85.49-84.82s38.35-84.82,85.49-84.82,85.49,38.05,85.49,84.82c0,1-.04,1.99-.08,2.98.04.66.08,1.31.08,1.99v106.35h32.85v-109.84c0-.49.04-.99.04-1.5s-.03-.99-.04-1.5v-.03.05Z"/>
</svg>